HIERARCHY
ROOT Hips
{
    OFFSET   0.000000   0.000000   0.000000
    CHANNELS 6 Xposition Yposition Zposition Zrotation Xrotation Yrotation
    JOINT Chest
    {
        OFFSET   0.000000   8.007230   0.000000
        CHANNELS 3 Zrotation Xrotation Yrotation
        JOINT Chest2
        {
            OFFSET   0.000000  22.077100   0.000000
            CHANNELS 3 Zrotation Xrotation Yrotation
            JOINT Neck
            {
                OFFSET   0.000000  23.254800   0.000000
                CHANNELS 3 Zrotation Xrotation Yrotation
                JOINT Head
                {
                    OFFSET   0.000010  14.370000   1.956600
                    CHANNELS 3 Zrotation Xrotation Yrotation
                    End Site
                    {
                        OFFSET   0.000000  19.566000   0.000000
                    }
                }
            }
            JOINT LeftCollar
            {
                OFFSET   3.911900  19.017000  -0.467062
                CHANNELS 3 Zrotation Xrotation Yrotation
                JOINT LeftShoulder
                {
                    OFFSET  10.383700   0.000000   0.000000
                    CHANNELS 3 Zrotation Xrotation Yrotation
                    JOINT LeftElbow
                    {
                        OFFSET  26.662100   0.001193   0.000835
                        CHANNELS 3 Zrotation Xrotation Yrotation
                        JOINT LeftWrist
                        {
                            OFFSET  28.869000  -0.000058  -0.000075
                            CHANNELS 3 Zrotation Xrotation Yrotation
                            JOINT LeftFinger0
                            {
                                OFFSET   2.044660  -2.323460   3.252850
                                CHANNELS 3 Zrotation Xrotation Yrotation
                                JOINT LeftFinger01
                                {
                                    OFFSET   3.088130   0.000000   0.000000
                                    CHANNELS 3 Zrotation Xrotation Yrotation
                                    JOINT LeftFinger02
                                    {
                                        OFFSET   2.639450   0.000000   0.000000
                                        CHANNELS 3 Zrotation Xrotation Yrotation
                                        End Site
                                        {
                                            OFFSET   2.582190   0.000000   0.000000
                                        }
                                    }
                                }
                            }
                            JOINT LeftFinger1
                            {
                                OFFSET   8.364480   0.000000   3.252850
                                CHANNELS 3 Zrotation Xrotation Yrotation
                                JOINT LeftFinger11
                                {
                                    OFFSET   4.646920   0.000000   0.000000
                                    CHANNELS 3 Zrotation Xrotation Yrotation
                                    JOINT LeftFinger12
                                    {
                                        OFFSET   2.323460   0.000000   0.000000
                                        CHANNELS 3 Zrotation Xrotation Yrotation
                                        End Site
                                        {
                                            OFFSET   2.273050   0.000000   0.000000
                                        }
                                    }
                                }
                            }
                            JOINT LeftFinger2
                            {
                                OFFSET   8.364490   0.000016   1.078090
                                CHANNELS 3 Zrotation Xrotation Yrotation
                                JOINT LeftFinger21
                                {
                                    OFFSET   5.111620   0.000000   0.000000
                                    CHANNELS 3 Zrotation Xrotation Yrotation
                                    JOINT LeftFinger22
                                    {
                                        OFFSET   2.788150   0.000012   0.000000
                                        CHANNELS 3 Zrotation Xrotation Yrotation
                                        End Site
                                        {
                                            OFFSET   2.727660   0.000000   0.000000
                                        }
                                    }
                                }
                            }
                            JOINT LeftFinger3
                            {
                                OFFSET   7.899780   0.000014  -1.078090
                                CHANNELS 3 Zrotation Xrotation Yrotation
                                JOINT LeftFinger31
                                {
                                    OFFSET   4.646930   0.000000   0.000000
                                    CHANNELS 3 Zrotation Xrotation Yrotation
                                    JOINT LeftFinger32
                                    {
                                        OFFSET   2.323470   0.000000   0.000000
                                        CHANNELS 3 Zrotation Xrotation Yrotation
                                        End Site
                                        {
                                            OFFSET   2.273050   0.000000   0.000000
                                        }
                                    }
                                }
                            }
                            JOINT LeftFinger4
                            {
                                OFFSET   7.435090   0.000000  -3.252850
                                CHANNELS 3 Zrotation Xrotation Yrotation
                                JOINT LeftFinger41
                                {
                                    OFFSET   3.717550   0.000000   0.000000
                                    CHANNELS 3 Zrotation Xrotation Yrotation
                                    JOINT LeftFinger42
                                    {
                                        OFFSET   1.858770   0.000000   0.000000
                                        CHANNELS 3 Zrotation Xrotation Yrotation
                                        End Site
                                        {
                                            OFFSET   1.818440   0.000000   0.000000
                                        }
                                    }
                                }
                            }
                        }
                    }
                }
            }
            JOINT RightCollar
            {
                OFFSET  -3.911900  19.017000  -0.467063
                CHANNELS 3 Zrotation Xrotation Yrotation
                JOINT RightShoulder
                {
                    OFFSET -10.383700   0.000023   0.000000
                    CHANNELS 3 Zrotation Xrotation Yrotation
                    JOINT RightElbow
                    {
                        OFFSET -26.662100   0.001246   0.001011
                        CHANNELS 3 Zrotation Xrotation Yrotation
                        JOINT RightWrist
                        {
                            OFFSET -28.869000  -0.000026  -0.000078
                            CHANNELS 3 Zrotation Xrotation Yrotation
                            JOINT RightFinger0
                            {
                                OFFSET  -2.044660  -2.323490   3.252850
                                CHANNELS 3 Zrotation Xrotation Yrotation
                                JOINT RightFinger01
                                {
                                    OFFSET  -3.088130   0.000000   0.000000
                                    CHANNELS 3 Zrotation Xrotation Yrotation
                                    JOINT RightFinger02
                                    {
                                        OFFSET  -2.639460   0.000000   0.000000
                                        CHANNELS 3 Zrotation Xrotation Yrotation
                                        End Site
                                        {
                                            OFFSET  -2.582190   0.000000   0.000000
                                        }
                                    }
                                }
                            }
                            JOINT RightFinger1
                            {
                                OFFSET  -8.364480   0.000000   3.252850
                                CHANNELS 3 Zrotation Xrotation Yrotation
                                JOINT RightFinger11
                                {
                                    OFFSET  -4.646920   0.000000   0.000000
                                    CHANNELS 3 Zrotation Xrotation Yrotation
                                    JOINT RightFinger12
                                    {
                                        OFFSET  -2.323470   0.000000   0.000000
                                        CHANNELS 3 Zrotation Xrotation Yrotation
                                        End Site
                                        {
                                            OFFSET  -2.273050   0.000000   0.000000
                                        }
                                    }
                                }
                            }
                            JOINT RightFinger2
                            {
                                OFFSET  -8.364480   0.000000   1.078090
                                CHANNELS 3 Zrotation Xrotation Yrotation
                                JOINT RightFinger21
                                {
                                    OFFSET  -5.111620   0.000000   0.000000
                                    CHANNELS 3 Zrotation Xrotation Yrotation
                                    JOINT RightFinger22
                                    {
                                        OFFSET  -2.788160   0.000000   0.000000
                                        CHANNELS 3 Zrotation Xrotation Yrotation
                                        End Site
                                        {
                                            OFFSET  -2.727660   0.000000   0.000000
                                        }
                                    }
                                }
                            }
                            JOINT RightFinger3
                            {
                                OFFSET  -7.899780   0.000000  -1.078090
                                CHANNELS 3 Zrotation Xrotation Yrotation
                                JOINT RightFinger31
                                {
                                    OFFSET  -4.646930   0.000000   0.000000
                                    CHANNELS 3 Zrotation Xrotation Yrotation
                                    JOINT RightFinger32
                                    {
                                        OFFSET  -2.323470   0.000000   0.000000
                                        CHANNELS 3 Zrotation Xrotation Yrotation
                                        End Site
                                        {
                                            OFFSET  -2.273050   0.000000   0.000000
                                        }
                                    }
                                }
                            }
                            JOINT RightFinger4
                            {
                                OFFSET  -7.435090   0.000000  -3.252850
                                CHANNELS 3 Zrotation Xrotation Yrotation
                                JOINT RightFinger41
                                {
                                    OFFSET  -3.717550   0.000000   0.000000
                                    CHANNELS 3 Zrotation Xrotation Yrotation
                                    JOINT RightFinger42
                                    {
                                        OFFSET  -1.858760   0.000000   0.000000
                                        CHANNELS 3 Zrotation Xrotation Yrotation
                                        End Site
                                        {
                                            OFFSET  -1.818440   0.000000   0.000000
                                        }
                                    }
                                }
                            }
                        }
                    }
                }
            }
        }
    }
    JOINT LeftHip
    {
        OFFSET   9.783010   0.000000   0.000000
        CHANNELS 3 Zrotation Xrotation Yrotation
        JOINT LeftKnee
        {
            OFFSET   0.000073 -41.789100   0.001749
            CHANNELS 3 Zrotation Xrotation Yrotation
            JOINT LeftAnkle
            {
                OFFSET   0.000111 -41.133200  -0.000179
                CHANNELS 3 Zrotation Xrotation Yrotation
                JOINT LeftToe
                {
                    OFFSET   0.000000  -6.358960  14.674500
                    CHANNELS 3 Zrotation Xrotation Yrotation
                    End Site
                    {
                        OFFSET   0.000000   0.000000   3.913200
                    }
                }
            }
        }
    }
    JOINT RightHip
    {
        OFFSET  -9.783010   0.000000   0.000000
        CHANNELS 3 Zrotation Xrotation Yrotation
        JOINT RightKnee
        {
            OFFSET   0.000424 -41.789200   0.005205
            CHANNELS 3 Zrotation Xrotation Yrotation
            JOINT RightAnkle
            {
                OFFSET   0.000000 -41.133200  -0.000155
                CHANNELS 3 Zrotation Xrotation Yrotation
                JOINT RightToe
                {
                    OFFSET   0.000000  -6.358960  14.674500
                    CHANNELS 3 Zrotation Xrotation Yrotation
                    End Site
                    {
                        OFFSET   0.000000   0.000000   3.913200
                    }
                }
            }
        }
    }
}
MOTION
Frames: 4
Frame Time:   0.016667
 -0.251319  89.621500  -1.460790  -4.020160  -9.677700  -5.186170   1.051030   5.909630   0.568096   2.059310  11.828500   1.034770   1.292410   0.269377  -0.000180   2.120600   0.545604   0.738162  -4.189110  -1.074380  -1.432840 -73.768100  16.827900  -0.780452  -2.958440  -3.801530 -17.537800  17.756000 -12.118600   8.357740  42.797700  39.273900 -70.639100 -31.957100   0.002461   0.001602 -10.978500   0.000834   0.006153 -32.783700   6.308570  -9.693480 -27.260700  -0.003030   0.012425 -19.082500  -0.004168   0.003761 -28.863100  -1.263260   2.290600 -43.331700   0.003439   0.011536 -28.858900  -0.011475  -0.002332 -28.771900  -1.259640   2.292370 -43.135600   0.003733  -0.004587 -28.728300   0.003606   0.003107 -34.525400  -1.483150   2.154820 -51.830200   0.004892   0.004936 -34.518900   0.003947   0.000713   8.977240  -1.378890   4.670990  68.034800  15.653600  -2.434710  -2.044340  -7.964090  17.431000 -10.460100   0.746618  -5.151340 -46.602000  33.320700  70.291600  16.619500   0.011103  -0.018878   3.309740   0.011234  -0.012819  22.144800   3.432150   8.348830  18.334900   0.005610  -0.005065  12.834400   0.002029  -0.003486  24.923200   2.312870   4.948740  25.036600   0.003962  -0.005315  16.674400  -0.001407  -0.003279  21.572800   1.834150   4.612620  21.661900   0.007071  -0.013872  14.426800  -0.000528  -0.011116  29.342100   1.353890   2.396540  44.061100  -0.007150  -0.009994  29.344700  -0.007340  -0.008870   3.413950  12.092200   2.259100   0.927995   0.001397   7.417390  -2.359530  -3.293630   3.246410   0.000000   0.000000  -0.000000   3.185790   9.362110  -5.053920  -1.840100   3.983330  -7.449210   1.521040  -4.255400   1.607190   0.000000   0.000000   0.000000
 -0.242617  89.632000  -1.500500  -4.050190  -9.799130  -5.297890   1.051570   6.050050   0.629626   2.053220  12.110400   1.156500   1.292400   0.173666  -0.000184   2.121930   0.351697   0.603630  -4.233040  -1.246730  -1.741670 -73.635600  17.038200  -0.783467  -3.044450  -3.896230 -17.517700  17.637800 -12.028100   8.314570  42.859300  39.358400 -70.762200 -31.965300   0.002472   0.001628 -10.982600   0.000837   0.006155 -32.772500   6.309750  -9.695380 -27.252100  -0.003028   0.012427 -19.076500  -0.004175   0.003759 -28.847800  -1.258990   2.284310 -43.320400   0.003439   0.011539 -28.851400  -0.011478  -0.002332 -28.772200  -1.255960   2.285730 -43.113800   0.003733  -0.004587 -28.713800   0.003607   0.003106 -34.516900  -1.478580   2.148920 -51.817300   0.004893   0.004937 -34.510300   0.003947   0.000714   9.086710  -1.639030   4.709900  67.688700  16.636900  -2.091120  -2.067080  -7.844410  17.772900 -10.190800   1.667050  -5.247350 -46.952100  33.715200  70.730300  16.173200   0.011190  -0.024650   3.086600   0.011253  -0.012802  21.929000   3.508020   8.624290  18.174000   0.005608  -0.004955  12.721800   0.002016  -0.003492  24.715900   2.408600   5.204760  24.844400   0.003959  -0.005179  16.546400  -0.001448  -0.003277  21.382100   1.917180   4.872690  21.485800   0.007051  -0.012643  14.309500  -0.000563  -0.011107  29.170100   1.380790   2.460230  43.806400  -0.007172  -0.010128  29.175000  -0.007389  -0.008839   3.414100  12.203200   2.222440   0.923777   0.032955   7.494500  -2.355980  -3.305260   3.300660  -0.000000   0.000000  -0.000000   3.192120   9.394150  -5.119810  -1.876750   4.081380  -7.333660   1.539580  -4.254800   1.656090  -0.000000   0.000000   0.000000
 -0.229806  89.648500  -1.569310  -4.111080 -10.035500  -5.521480   1.049950   6.308730   0.730946   2.037020  12.629500   1.357120   1.292400   0.009619  -0.000187   2.123510   0.019350   0.374991  -4.312560  -1.544040  -2.230720 -73.398500  17.462600  -0.800306  -3.185260  -4.099800 -17.477100  17.451900 -11.871000   8.239680  42.916300  39.453900 -70.878000 -31.973500   0.002484   0.001654 -10.986700   0.000844   0.006163 -32.740300   6.315960  -9.708640 -27.227200  -0.003025   0.012433 -19.059000  -0.004183   0.003757 -28.821100  -1.245830   2.262950 -43.285900   0.003441   0.011547 -28.828400  -0.011485  -0.002332 -28.773100  -1.243880   2.263790 -43.058800   0.003734  -0.004588 -28.677200   0.003609   0.003103 -34.488700  -1.463410   2.129120 -51.774500   0.004893   0.004939 -34.481800   0.003948   0.000715   9.264070  -2.082700   4.803420  67.064900  18.303300  -1.391080  -2.203780  -7.379210  18.440200  -9.863610   3.171270  -5.347560 -47.523400  34.320600  71.424200  15.413700   0.011276  -0.030422   2.706820   0.011291  -0.012759  21.574900   3.651920   9.133680  17.911000   0.005597  -0.004844  12.537700   0.001986  -0.003497  24.380100   2.594250   5.693700  24.534100   0.003951  -0.005044  16.339700  -0.001489  -0.003266  21.079000   2.092080   5.404120  21.206900   0.006999  -0.009729  14.123800  -0.000599  -0.011085  28.865600   1.428190   2.575820  43.354300  -0.007194  -0.010262  28.873900  -0.007438  -0.008774   3.409830  12.430900   2.186740   0.917852   0.076089   7.631210  -2.349570  -3.316720   3.403930   0.000000   0.000000   0.000000   3.211030   9.477500  -5.233390  -1.945720   4.246010  -7.144650   1.568860  -4.251180   1.776940  -0.000000   0.000000   0.000000
 -0.222228  89.660500  -1.630120  -4.189760 -10.294800  -5.776570   1.045060   6.569830   0.808855   2.014980  13.152900   1.511180   1.300430  -0.136873   0.002796   2.137250  -0.277407   0.188816  -4.386590  -1.804430  -2.575460 -73.155800  17.963900  -0.888761  -3.295970  -4.366730 -17.423600  17.305000 -11.716300   8.170550  42.951700  39.473700 -70.862100 -31.940100   0.002481   0.001623 -10.970000   0.000855   0.006183 -32.670300   6.329780  -9.751240 -27.174500  -0.003030   0.012447 -19.022100  -0.004180   0.003758 -28.790800  -1.220390   2.219300 -43.205300   0.003442   0.011559 -28.774800  -0.011496  -0.002333 -28.775000  -1.219650   2.219610 -42.947600   0.003736  -0.004591 -28.603100   0.003611   0.003099 -34.423100  -1.432570   2.088990 -51.673700   0.004894   0.004945 -34.414700   0.003949   0.000717   9.388530  -2.465790   4.933170  66.499500  19.669600  -0.584195  -2.534800  -6.456380  19.175700  -9.946640   4.369020  -5.349000 -47.947300  34.711400  71.853600  14.766900   0.011254  -0.026941   2.383410   0.011337  -0.012694  21.270800   3.803810   9.658230  17.694600   0.005567  -0.005110  12.386200   0.001943  -0.003461  24.095900   2.800360   6.228480  24.287400   0.003941  -0.005363  16.175400  -0.001402  -0.003252  20.832700   2.314500   6.059420  20.971700   0.006914  -0.004220  13.967100  -0.000518  -0.011050  28.563400   1.474900   2.697040  42.902800  -0.007140  -0.009455  28.573300  -0.007318  -0.008686   3.400570  12.699400   2.189910   0.924820   0.090897   7.762310  -2.340390  -3.313010   3.516710  -0.000000   0.000000   0.000000   3.246360   9.602920  -5.339580  -2.015150   4.384610  -7.001940   1.587460  -4.245040   1.962640  -0.000000   0.000000   0.000000
